solid OpenSCAD_Model
  facet normal 0.944002 0.0992186 0.314667
    outer loop
      vertex 19.563 4.15823 -30
      vertex 0 0 30
      vertex 20 0 -30
    endloop
  endfacet
  facet normal 0.902745 0.29332 0.314667
    outer loop
      vertex 18.2709 8.13473 -30
      vertex 0 0 30
      vertex 19.563 4.15823 -30
    endloop
  endfacet
  facet normal 0.822033 0.474601 0.314667
    outer loop
      vertex 16.1803 11.7557 -30
      vertex 0 0 30
      vertex 18.2709 8.13473 -30
    endloop
  endfacet
  facet normal 0.705395 0.63514 0.314667
    outer loop
      vertex 13.3826 14.8629 -30
      vertex 0 0 30
      vertex 16.1803 11.7557 -30
    endloop
  endfacet
  facet normal 0.557927 0.767921 0.314667
    outer loop
      vertex 10 17.3205 -30
      vertex 0 0 30
      vertex 13.3826 14.8629 -30
    endloop
  endfacet
  facet normal 0.386075 0.867139 0.314667
    outer loop
      vertex 6.18034 19.0211 -30
      vertex 0 0 30
      vertex 10 17.3205 -30
    endloop
  endfacet
  facet normal 0.19735 0.92846 0.314667
    outer loop
      vertex 2.09057 19.8904 -30
      vertex 0 0 30
      vertex 6.18034 19.0211 -30
    endloop
  endfacet
  facet normal -0 0.949202 0.314667
    outer loop
      vertex -2.09057 19.8904 -30
      vertex 0 0 30
      vertex 2.09057 19.8904 -30
    endloop
  endfacet
  facet normal -0.19735 0.92846 0.314667
    outer loop
      vertex -6.18034 19.0211 -30
      vertex -0 0 30
      vertex -2.09057 19.8904 -30
    endloop
  endfacet
  facet normal -0.386075 0.867139 0.314667
    outer loop
      vertex -10 17.3205 -30
      vertex -0 0 30
      vertex -6.18034 19.0211 -30
    endloop
  endfacet
  facet normal -0.557927 0.767921 0.314667
    outer loop
      vertex -13.3826 14.8629 -30
      vertex -0 0 30
      vertex -10 17.3205 -30
    endloop
  endfacet
  facet normal -0.705395 0.63514 0.314667
    outer loop
      vertex -16.1803 11.7557 -30
      vertex -0 0 30
      vertex -13.3826 14.8629 -30
    endloop
  endfacet
  facet normal -0.822033 0.474601 0.314667
    outer loop
      vertex -18.2709 8.13473 -30
      vertex -0 0 30
      vertex -16.1803 11.7557 -30
    endloop
  endfacet
  facet normal -0.902745 0.29332 0.314667
    outer loop
      vertex -19.563 4.15823 -30
      vertex -0 0 30
      vertex -18.2709 8.13473 -30
    endloop
  endfacet
  facet normal -0.944002 0.0992186 0.314667
    outer loop
      vertex -20 1.1331e-014 -30
      vertex -0 0 30
      vertex -19.563 4.15823 -30
    endloop
  endfacet
  facet normal -0.944002 -0.0992186 0.314667
    outer loop
      vertex -19.563 -4.15823 -30
      vertex -0 0 30
      vertex -20 1.1331e-014 -30
    endloop
  endfacet
  facet normal -0.902745 -0.29332 0.314667
    outer loop
      vertex -18.2709 -8.13473 -30
      vertex -0 -0 30
      vertex -19.563 -4.15823 -30
    endloop
  endfacet
  facet normal -0.822033 -0.474601 0.314667
    outer loop
      vertex -16.1803 -11.7557 -30
      vertex -0 -0 30
      vertex -18.2709 -8.13473 -30
    endloop
  endfacet
  facet normal -0.705395 -0.63514 0.314667
    outer loop
      vertex -13.3826 -14.8629 -30
      vertex -0 -0 30
      vertex -16.1803 -11.7557 -30
    endloop
  endfacet
  facet normal -0.557927 -0.767921 0.314667
    outer loop
      vertex -10 -17.3205 -30
      vertex -0 -0 30
      vertex -13.3826 -14.8629 -30
    endloop
  endfacet
  facet normal -0.386075 -0.867139 0.314667
    outer loop
      vertex -6.18034 -19.0211 -30
      vertex -0 -0 30
      vertex -10 -17.3205 -30
    endloop
  endfacet
  facet normal -0.19735 -0.92846 0.314667
    outer loop
      vertex -2.09057 -19.8904 -30
      vertex -0 -0 30
      vertex -6.18034 -19.0211 -30
    endloop
  endfacet
  facet normal 0 -0.949202 0.314667
    outer loop
      vertex 2.09057 -19.8904 -30
      vertex -0 -0 30
      vertex -2.09057 -19.8904 -30
    endloop
  endfacet
  facet normal 0.19735 -0.92846 0.314667
    outer loop
      vertex 6.18034 -19.0211 -30
      vertex 0 -0 30
      vertex 2.09057 -19.8904 -30
    endloop
  endfacet
  facet normal 0.386075 -0.867139 0.314667
    outer loop
      vertex 10 -17.3205 -30
      vertex 0 -0 30
      vertex 6.18034 -19.0211 -30
    endloop
  endfacet
  facet normal 0.557927 -0.767921 0.314667
    outer loop
      vertex 13.3826 -14.8629 -30
      vertex 0 -0 30
      vertex 10 -17.3205 -30
    endloop
  endfacet
  facet normal 0.705395 -0.63514 0.314667
    outer loop
      vertex 16.1803 -11.7557 -30
      vertex 0 -0 30
      vertex 13.3826 -14.8629 -30
    endloop
  endfacet
  facet normal 0.822033 -0.474601 0.314667
    outer loop
      vertex 18.2709 -8.13473 -30
      vertex 0 -0 30
      vertex 16.1803 -11.7557 -30
    endloop
  endfacet
  facet normal 0.902745 -0.29332 0.314667
    outer loop
      vertex 19.563 -4.15823 -30
      vertex 0 -0 30
      vertex 18.2709 -8.13473 -30
    endloop
  endfacet
  facet normal 0.944002 -0.0992186 0.314667
    outer loop
      vertex 20 0 -30
      vertex 0 -0 30
      vertex 19.563 -4.15823 -30
    endloop
  endfacet
  facet normal 0 0 -1
    outer loop
      vertex 19.563 -4.15823 -30
      vertex 19.563 4.15823 -30
      vertex 20 0 -30
    endloop
  endfacet
  facet normal 0 0 -1
    outer loop
      vertex 18.2709 -8.13473 -30
      vertex 19.563 4.15823 -30
      vertex 19.563 -4.15823 -30
    endloop
  endfacet
  facet normal 0 0 -1
    outer loop
      vertex 18.2709 -8.13473 -30
      vertex 18.2709 8.13473 -30
      vertex 19.563 4.15823 -30
    endloop
  endfacet
  facet normal 0 0 -1
    outer loop
      vertex 16.1803 -11.7557 -30
      vertex 18.2709 8.13473 -30
      vertex 18.2709 -8.13473 -30
    endloop
  endfacet
  facet normal 0 0 -1
    outer loop
      vertex 16.1803 -11.7557 -30
      vertex 16.1803 11.7557 -30
      vertex 18.2709 8.13473 -30
    endloop
  endfacet
  facet normal 0 0 -1
    outer loop
      vertex 13.3826 -14.8629 -30
      vertex 16.1803 11.7557 -30
      vertex 16.1803 -11.7557 -30
    endloop
  endfacet
  facet normal 0 0 -1
    outer loop
      vertex 13.3826 -14.8629 -30
      vertex 13.3826 14.8629 -30
      vertex 16.1803 11.7557 -30
    endloop
  endfacet
  facet normal 0 0 -1
    outer loop
      vertex 10 -17.3205 -30
      vertex 13.3826 14.8629 -30
      vertex 13.3826 -14.8629 -30
    endloop
  endfacet
  facet normal 0 0 -1
    outer loop
      vertex 10 -17.3205 -30
      vertex 10 17.3205 -30
      vertex 13.3826 14.8629 -30
    endloop
  endfacet
  facet normal 0 0 -1
    outer loop
      vertex 6.18034 -19.0211 -30
      vertex 10 17.3205 -30
      vertex 10 -17.3205 -30
    endloop
  endfacet
  facet normal 0 0 -1
    outer loop
      vertex 6.18034 -19.0211 -30
      vertex 6.18034 19.0211 -30
      vertex 10 17.3205 -30
    endloop
  endfacet
  facet normal 0 0 -1
    outer loop
      vertex 2.09057 -19.8904 -30
      vertex 6.18034 19.0211 -30
      vertex 6.18034 -19.0211 -30
    endloop
  endfacet
  facet normal 0 0 -1
    outer loop
      vertex 2.09057 -19.8904 -30
      vertex 2.09057 19.8904 -30
      vertex 6.18034 19.0211 -30
    endloop
  endfacet
  facet normal 0 0 -1
    outer loop
      vertex -2.09057 -19.8904 -30
      vertex 2.09057 19.8904 -30
      vertex 2.09057 -19.8904 -30
    endloop
  endfacet
  facet normal 0 0 -1
    outer loop
      vertex -2.09057 -19.8904 -30
      vertex -2.09057 19.8904 -30
      vertex 2.09057 19.8904 -30
    endloop
  endfacet
  facet normal 0 0 -1
    outer loop
      vertex -6.18034 -19.0211 -30
      vertex -2.09057 19.8904 -30
      vertex -2.09057 -19.8904 -30
    endloop
  endfacet
  facet normal 0 0 -1
    outer loop
      vertex -6.18034 -19.0211 -30
      vertex -6.18034 19.0211 -30
      vertex -2.09057 19.8904 -30
    endloop
  endfacet
  facet normal 0 0 -1
    outer loop
      vertex -10 -17.3205 -30
      vertex -6.18034 19.0211 -30
      vertex -6.18034 -19.0211 -30
    endloop
  endfacet
  facet normal 0 0 -1
    outer loop
      vertex -10 -17.3205 -30
      vertex -10 17.3205 -30
      vertex -6.18034 19.0211 -30
    endloop
  endfacet
  facet normal 0 0 -1
    outer loop
      vertex -13.3826 -14.8629 -30
      vertex -10 17.3205 -30
      vertex -10 -17.3205 -30
    endloop
  endfacet
  facet normal 0 0 -1
    outer loop
      vertex -13.3826 -14.8629 -30
      vertex -13.3826 14.8629 -30
      vertex -10 17.3205 -30
    endloop
  endfacet
  facet normal 0 0 -1
    outer loop
      vertex -16.1803 -11.7557 -30
      vertex -13.3826 14.8629 -30
      vertex -13.3826 -14.8629 -30
    endloop
  endfacet
  facet normal 0 0 -1
    outer loop
      vertex -16.1803 -11.7557 -30
      vertex -16.1803 11.7557 -30
      vertex -13.3826 14.8629 -30
    endloop
  endfacet
  facet normal 0 0 -1
    outer loop
      vertex -18.2709 -8.13473 -30
      vertex -16.1803 11.7557 -30
      vertex -16.1803 -11.7557 -30
    endloop
  endfacet
  facet normal 0 0 -1
    outer loop
      vertex -18.2709 -8.13473 -30
      vertex -18.2709 8.13473 -30
      vertex -16.1803 11.7557 -30
    endloop
  endfacet
  facet normal 0 0 -1
    outer loop
      vertex -19.563 -4.15823 -30
      vertex -18.2709 8.13473 -30
      vertex -18.2709 -8.13473 -30
    endloop
  endfacet
  facet normal 0 0 -1
    outer loop
      vertex -19.563 -4.15823 -30
      vertex -19.563 4.15823 -30
      vertex -18.2709 8.13473 -30
    endloop
  endfacet
  facet normal 0 -0 -1
    outer loop
      vertex -19.563 4.15823 -30
      vertex -19.563 -4.15823 -30
      vertex -20 1.1331e-014 -30
    endloop
  endfacet
endsolid OpenSCAD_Model
